<mxfile host="app.diagrams.net" modified="2020-06-26T14:20:53.154Z" agent="5.0 (Windows NT 10.0; Win64; x64) AppleWebKit/537.36 (KHTML, like Gecko) Chrome/83.0.4103.116 Safari/537.36" etag="e5PkBqR8vJuaU23mqaYM" version="13.3.4" type="github">
  <diagram id="xhL6wI_BUi6UUg7aamur" name="Page-1">
    <mxGraphModel dx="1422" dy="745" grid="1" gridSize="10" guides="1" tooltips="1" connect="1" arrows="1" fold="1" page="1" pageScale="1" pageWidth="827" pageHeight="1169" math="0" shadow="0">
      <root>
        <mxCell id="0" />
        <mxCell id="1" parent="0" />
        <mxCell id="ARMpdMrs1Kn8RmT00tNj-7" style="edgeStyle=orthogonalEdgeStyle;rounded=0;orthogonalLoop=1;jettySize=auto;html=1;entryX=0;entryY=0;entryDx=250;entryDy=223.5;entryPerimeter=0;" parent="1" source="ARMpdMrs1Kn8RmT00tNj-1" target="ARMpdMrs1Kn8RmT00tNj-3" edge="1">
          <mxGeometry relative="1" as="geometry" />
        </mxCell>
        <mxCell id="ARMpdMrs1Kn8RmT00tNj-1" value="&lt;b&gt;&amp;lt;&amp;lt;browser&amp;gt;&amp;gt;&lt;/b&gt;" style="verticalAlign=top;align=left;spacingTop=8;spacingLeft=2;spacingRight=12;shape=cube;size=10;direction=south;fontStyle=0;html=1;" parent="1" vertex="1">
          <mxGeometry x="319" y="430" width="180" height="120" as="geometry" />
        </mxCell>
        <mxCell id="ARMpdMrs1Kn8RmT00tNj-2" value="Client" style="text;html=1;align=center;verticalAlign=middle;resizable=0;points=[];;autosize=1;fontStyle=1" parent="1" vertex="1">
          <mxGeometry x="384" y="480" width="50" height="20" as="geometry" />
        </mxCell>
        <mxCell id="ARMpdMrs1Kn8RmT00tNj-3" value="&amp;lt;&amp;lt;processor&amp;gt;&amp;gt;&lt;br&gt;IIS-Webserver" style="verticalAlign=top;align=left;spacingTop=8;spacingLeft=2;spacingRight=12;shape=cube;size=10;direction=south;fontStyle=1;html=1;" parent="1" vertex="1">
          <mxGeometry x="195" y="60" width="437" height="250" as="geometry" />
        </mxCell>
        <mxCell id="ARMpdMrs1Kn8RmT00tNj-8" value="HTTPS" style="text;html=1;align=center;verticalAlign=middle;resizable=0;points=[];;autosize=1;" parent="1" vertex="1">
          <mxGeometry x="420" y="360" width="50" height="20" as="geometry" />
        </mxCell>
        <mxCell id="ARMpdMrs1Kn8RmT00tNj-9" value="ASP.NET Core&#xa;Application" style="shape=component;align=left;spacingLeft=36;" parent="1" vertex="1">
          <mxGeometry x="230" y="150" width="130" height="60" as="geometry" />
        </mxCell>
        <mxCell id="ARMpdMrs1Kn8RmT00tNj-10" value="MSSQL" style="html=1;verticalLabelPosition=bottom;align=center;labelBackgroundColor=#ffffff;verticalAlign=top;strokeWidth=2;strokeColor=#000000;shadow=0;dashed=0;shape=mxgraph.ios7.icons.data;" parent="1" vertex="1">
          <mxGeometry x="470" y="135" width="80" height="90" as="geometry" />
        </mxCell>
        <mxCell id="ARMpdMrs1Kn8RmT00tNj-11" value="" style="endArrow=block;startArrow=block;endFill=1;startFill=1;html=1;exitX=1;exitY=0.5;exitDx=0;exitDy=0;" parent="1" source="ARMpdMrs1Kn8RmT00tNj-9" target="ARMpdMrs1Kn8RmT00tNj-10" edge="1">
          <mxGeometry width="160" relative="1" as="geometry">
            <mxPoint x="270" y="250" as="sourcePoint" />
            <mxPoint x="430" y="250" as="targetPoint" />
          </mxGeometry>
        </mxCell>
      </root>
    </mxGraphModel>
  </diagram>
</mxfile>
